<svg xmlns="http://www.w3.org/2000/svg" width="220" height="64" viewBox="0 0 220 64" fill="none">
  <!-- Shield + MB monogram -->
  <path d="M32 4L52 12V30C52 42 32 56 32 56C32 56 12 42 12 30V12L32 4Z" fill="#0d9488"/>
  <path d="M32 8L48 14.5V29.5C48 39.5 32 51 32 51C32 51 16 39.5 16 29.5V14.5L32 8Z" fill="#14b8a6"/>
  <!-- Medical cross -->
  <rect x="29" y="22" width="6" height="16" rx="1" fill="#ffffff"/>
  <rect x="24" y="27" width="16" height="6" rx="1" fill="#ffffff"/>
  <!-- MB initials -->
  <text x="32" y="48" text-anchor="middle" font-family="Arial,Helvetica,sans-serif" font-size="11" font-weight="800" fill="#ffffff">MB</text>
  <!-- Wordmark  dark colors for visibility on light backgrounds -->
  <text x="68" y="28" font-family="Arial,Helvetica,sans-serif" font-size="22" font-weight="700" fill="#0f172a">MediBook</text>
  <text x="68" y="48" font-family="Arial,Helvetica,sans-serif" font-size="18" font-weight="700" fill="#0d9488">Clinic</text>
  <text x="68" y="58" font-family="Arial,Helvetica,sans-serif" font-size="9" font-weight="500" fill="#64748b" letter-spacing="0.04em">CARE · BOOK · HEAL</text>
</svg>
