<svg width="64" height="64" viewBox="0 0 64 64" fill="none" xmlns="http://www.w3.org/2000/svg" role="img" aria-label="MediBook Clinic">
  <defs>
    <linearGradient id="bg" x1="8" y1="4" x2="56" y2="60" gradientUnits="userSpaceOnUse">
      <stop stop-color="#14b8a6"/>
      <stop offset="1" stop-color="#8b5cf6"/>
    </linearGradient>
    <linearGradient id="book" x1="20" y1="18" x2="44" y2="46" gradientUnits="userSpaceOnUse">
      <stop stop-color="#ffffff" stop-opacity="0.98"/>
      <stop offset="1" stop-color="#ffffff" stop-opacity="0.88"/>
    </linearGradient>
  </defs>
  <rect x="4" y="4" width="56" height="56" rx="16" fill="url(#bg)"/>
  <rect x="4" y="4" width="56" height="56" rx="16" stroke="rgba(255,255,255,0.35)" stroke-width="1.5"/>
  <path d="M32 17C26.5 17 22 19.2 22 22v22c0 0 4.5-2.5 10-2.5s10 2.5 10 2.5V22c0-2.8-4.5-5-10-5Z" fill="url(#book)"/>
  <path d="M32 17v27" stroke="rgba(255,255,255,0.45)" stroke-width="1.5" stroke-linecap="round"/>
  <circle cx="27" cy="26" r="1.6" fill="#0d9488"/>
  <circle cx="32" cy="26" r="1.6" fill="#0d9488"/>
  <circle cx="37" cy="26" r="1.6" fill="#0d9488"/>
  <path d="M18 42h8l2.5-5 3 10 2.5-5H46" stroke="white" stroke-width="2.2" stroke-linecap="round" stroke-linejoin="round" stroke-opacity="0.95"/>
  <path d="M48 20v5M45.5 22.5H50.5" stroke="rgba(255,255,255,0.9)" stroke-width="1.8" stroke-linecap="round"/>
</svg>
